<svg version="1.1" id="Layer_1" xmlns="http://www.w3.org/2000/svg" xmlns:xlink="http://www.w3.org/1999/xlink" x="0px" y="0px"
	 width="100%" viewBox="0 0 1024 768" enable-background="new 0 0 1024 768" xml:space="preserve">
<path fill="#000000" opacity="1.000000" stroke="none" 
	d="
M1025.000000,256.531342 
	C1023.303711,267.473358 1021.853149,277.967438 1019.488159,288.349060 
	C1013.993591,312.469177 1004.798218,335.041809 991.759216,355.970245 
	C958.803894,408.865631 911.786682,442.609924 851.378845,457.525085 
	C840.609619,460.184052 829.433594,461.195526 818.444397,462.961395 
	C818.117554,463.013916 817.772766,463.045258 817.447327,463.002777 
	C815.142212,462.702026 811.455688,464.029541 811.267151,460.654327 
	C811.069092,457.107025 814.818420,458.091644 817.084412,457.914490 
	C859.692688,454.583496 898.222473,440.305450 932.234497,414.418396 
	C973.914368,382.695282 1001.096375,341.256561 1013.924927,290.456818 
	C1020.302002,265.204163 1022.046204,239.563995 1018.965820,213.743347 
	C1009.172913,131.655701 966.841919,72.358490 892.747620,36.054317 
	C872.647705,26.205879 851.081665,20.395672 828.635559,18.110676 
	C795.913940,14.779641 763.931396,17.933088 732.456604,27.487629 
	C715.511047,32.631622 701.094666,42.171879 687.438049,52.799076 
	C653.461365,79.238792 626.082458,111.382278 606.145813,149.676346 
	C604.303833,153.214355 602.769165,156.913589 601.141663,160.560226 
	C600.963867,160.958679 601.117737,161.505173 601.117737,161.944794 
	C602.262085,163.108063 603.668457,162.702545 604.944763,162.723373 
	C636.423462,163.237076 667.895874,164.245544 699.385071,163.956772 
	C701.051086,163.941498 702.718811,163.967606 704.383911,164.025711 
	C707.067688,164.119354 709.852112,164.067230 711.137451,167.157242 
	C712.613892,170.706894 712.721619,174.305008 711.140808,177.828339 
	C710.160034,180.014587 708.100586,179.405655 706.309998,179.346390 
	C698.313293,179.081711 690.385010,178.936859 682.530579,181.244446 
	C659.254578,188.082825 647.413208,209.950241 655.183899,232.977829 
	C666.252808,265.779572 677.694641,298.455261 688.919983,331.204437 
	C702.790833,371.671783 716.560059,412.173981 730.453369,452.633606 
	C743.261047,489.931915 756.489319,527.089844 768.863159,564.530701 
	C772.948242,576.891541 776.504150,589.345276 783.342041,600.516602 
	C786.325195,605.390198 788.508606,611.122314 795.059753,612.747681 
	C796.752869,613.167725 796.860229,614.983154 796.567078,616.548645 
	C796.259521,618.190613 795.109619,618.475586 793.589966,618.467346 
	C771.927307,618.349609 750.264343,618.278687 728.601501,618.196716 
	C726.728149,618.189636 724.773743,618.227844 724.229736,615.858398 
	C723.618530,613.196228 725.579956,612.019226 727.514404,611.695007 
	C735.129150,610.418579 735.930603,604.456116 736.568665,598.626465 
	C737.208801,592.777039 736.073303,587.076111 734.318787,581.421143 
	C717.748657,528.013794 698.254028,475.605621 680.196045,422.707245 
	C669.979919,392.780334 659.832947,362.828339 649.377075,332.984985 
	C634.078735,289.320282 619.790588,245.304550 603.786133,201.885895 
	C601.780273,196.443954 599.796082,190.993973 597.393127,184.431442 
	C595.829773,188.126709 594.688232,190.893829 593.493835,193.637939 
	C574.537598,237.189209 558.784485,281.911133 543.876587,326.986298 
	C534.005249,356.833069 524.816833,386.924408 513.364136,416.249237 
	C491.255310,472.859406 469.409882,529.572449 447.454041,586.242371 
	C441.620636,601.298950 435.736755,616.336182 429.969025,631.417786 
	C427.569794,637.691284 427.689819,637.688354 434.191498,639.045105 
	C453.944580,643.167175 472.738739,650.469849 491.935272,656.446899 
	C530.225830,668.369324 568.642395,679.890137 606.883240,691.968262 
	C640.512512,702.589905 674.287537,712.621399 708.513367,721.176147 
	C720.919678,724.277100 733.153198,728.467834 745.776306,730.203613 
	C755.016174,731.474182 764.412170,732.729675 773.983643,731.993103 
	C782.868713,731.309204 791.851196,731.618225 800.794128,731.058228 
	C813.271851,730.276917 825.022461,726.476257 836.556580,722.322144 
	C879.642578,706.804199 916.753174,682.023926 948.104797,648.664673 
	C952.547974,643.937012 956.523560,638.769592 960.710083,633.801147 
	C961.865845,632.429504 962.959229,630.320435 965.061279,632.012878 
	C967.037109,633.603577 965.576111,635.402832 964.460327,636.813354 
	C955.865417,647.679565 946.503296,657.840454 936.276978,667.196716 
	C916.401794,685.380798 894.400452,700.666138 871.210022,714.221802 
	C854.394714,724.050903 836.837463,732.358704 818.712830,739.660767 
	C789.346436,751.491882 758.918030,755.423950 727.721313,752.900085 
	C713.376099,751.739563 699.289795,747.825500 685.330688,743.945862 
	C660.007690,736.908020 634.601196,730.171387 609.254578,723.217590 
	C571.530884,712.868164 534.528748,700.182434 497.213409,688.510132 
	C471.011810,680.314209 444.751923,672.304260 418.565735,664.059814 
	C415.510468,663.097778 413.814026,663.567993 411.870392,666.175354 
	C379.706299,709.322754 337.002014,735.810669 284.409882,746.715515 
	C268.298126,750.056274 252.268234,753.854492 235.909042,755.773254 
	C219.148193,757.739014 202.421082,757.389587 185.618835,755.258850 
	C161.291183,752.173950 137.935623,745.917786 115.969536,735.102722 
	C62.008945,708.535095 25.648458,666.819824 8.614134,608.804382 
	C1.275074,583.809082 -0.244151,558.097656 3.292536,532.594788 
	C10.530350,480.403351 34.864445,436.995575 74.556709,402.298767 
	C92.509384,386.605469 112.516342,374.133942 134.475021,364.813568 
	C135.548508,364.357971 136.624344,363.905914 137.712982,363.488495 
	C139.178940,362.926361 140.804245,362.514709 141.681335,364.206055 
	C142.748825,366.264526 141.181320,367.287720 139.578140,367.963135 
	C132.511688,370.940216 125.530899,374.095245 118.804420,377.785400 
	C67.765457,405.785614 31.180285,446.319122 15.056849,502.761871 
	C-6.135791,576.950317 11.908806,641.881165 66.874756,695.599426 
	C99.032562,727.027222 138.726532,744.319031 183.433868,750.020447 
	C210.300568,753.446655 237.058014,752.617371 263.214111,746.059448 
	C282.297150,741.274719 300.145020,732.631165 316.724884,721.859924 
	C340.799530,706.219604 360.713959,686.317505 376.404633,662.238708 
	C377.221710,660.984802 377.991547,659.693176 378.679932,658.365479 
	C378.967285,657.811340 378.983673,657.116577 379.160339,656.318420 
	C376.375732,654.489563 373.245178,655.169250 370.376953,654.860352 
	C342.799622,651.890686 315.224487,651.369141 287.842651,656.542542 
	C282.018036,657.643066 276.413635,660.353333 271.427246,663.674927 
	C245.689911,680.819458 222.873352,701.042542 205.702423,727.089600 
	C202.481857,731.974976 199.994827,737.249451 197.447906,742.497070 
	C196.692810,744.052734 196.074265,746.491333 193.669617,745.458130 
	C190.934570,744.283020 192.452301,742.052490 193.214539,740.319641 
	C199.732483,725.501587 209.138428,712.592896 220.077393,700.816284 
	C246.443726,672.431091 277.117249,650.228394 313.849945,637.154358 
	C332.287964,630.591858 351.430084,628.889832 370.901093,630.629211 
	C376.861298,631.161682 382.894806,630.177979 388.831970,631.519470 
	C391.222412,632.059570 391.922058,630.236816 392.615692,628.437012 
	C411.054413,580.591492 429.196503,532.628418 448.067474,484.953796 
	C462.169800,449.326477 473.455139,412.758545 485.888031,376.571655 
	C486.453552,374.925781 486.070007,373.749207 485.488647,372.332977 
	C465.568359,323.807831 445.673859,275.272095 425.783142,226.734833 
	C421.111389,215.334854 416.478943,203.918777 411.796051,192.523407 
	C411.065186,190.744919 410.160431,189.037888 408.846771,186.264847 
	C405.467865,195.496231 402.391144,203.700104 399.456482,211.954483 
	C386.021515,249.742844 373.439880,287.828949 360.227448,325.688354 
	C341.478882,379.411133 323.088287,433.257233 304.314850,486.970734 
	C294.924744,513.837036 285.575806,540.719360 276.490204,567.689453 
	C273.845398,575.540466 272.237061,583.736816 270.034058,591.741943 
	C268.488037,597.359924 269.876648,602.625610 271.733002,607.821716 
	C272.668091,610.439087 274.341492,612.242615 277.509430,612.594299 
	C279.964142,612.866821 282.742157,613.750854 282.149139,617.211121 
	C281.598450,620.424683 278.945709,619.328064 276.905151,619.339233 
	C255.585388,619.455872 234.259064,618.853027 212.948898,619.904968 
	C211.437500,619.979614 210.219986,619.804749 209.857040,618.190857 
	C209.521179,616.697266 209.392410,614.833191 211.044189,614.219238 
	C220.848587,610.575134 223.112823,600.998352 227.529739,593.241760 
	C233.683548,582.434998 235.839203,570.110168 239.844223,558.484375 
	C256.649475,509.702179 273.424072,460.909424 290.202576,412.118011 
	C302.542664,376.233459 314.890808,340.351654 327.198517,304.456024 
	C335.346863,280.691101 343.240387,256.836975 351.594604,233.145020 
	C360.179901,208.797775 343.308289,186.187317 318.812805,181.319290 
	C312.245117,180.014069 305.617859,179.624985 298.977386,180.911026 
	C297.552429,181.186981 296.254547,180.945190 295.466248,179.651093 
	C293.264496,176.036591 293.885498,172.238815 295.115997,168.543610 
	C296.167969,165.384506 299.081604,166.007492 301.492828,165.965744 
	C324.640900,165.564896 347.801788,165.545746 370.933899,164.716812 
	C384.592072,164.227386 398.245392,164.109558 411.899323,163.765274 
	C415.654968,163.670563 417.301880,164.941177 418.746338,168.550842 
	C433.902435,206.425171 449.310211,244.198853 464.674713,281.989685 
	C473.640259,304.041504 482.643372,326.078064 491.673767,348.103363 
	C492.147644,349.259186 492.349976,350.685455 494.054932,351.547211 
	C498.320251,338.712280 502.564606,325.972137 506.788239,313.225128 
	C520.552307,271.684448 533.297913,229.772064 548.302002,188.684341 
	C571.598145,124.889198 611.372070,73.999176 671.402466,40.481674 
	C687.723511,31.368954 705.289673,25.349718 723.708557,21.285503 
	C740.455688,17.590183 757.209106,14.007074 774.224487,12.407114 
	C791.093628,10.820914 808.077759,10.423212 825.039978,12.616759 
	C842.741516,14.905907 860.204834,18.073057 876.973022,24.332888 
	C937.537170,46.942513 980.882019,87.882355 1007.067444,146.953598 
	C1016.856506,169.036469 1022.275146,192.273926 1024.849487,216.626129 
	C1025.000000,230.020889 1025.000000,243.041794 1025.000000,256.531342 
z"/>
</svg>